{
  "accessors": [
    {
      "bufferView": 2,
      "componentType": 5126,
      "count": 2227,
      "max": [
        3.862544059753418,
        -9.293229103088379,
        0.8560529947280884
      ],
      "min": [
        -3.8718369007110596,
        -51.180267333984375,
        -0.8560550212860107
      ],
      "type": "VEC3"
    },
    {
      "bufferView": 2,
      "byteOffset": 26724,
      "componentType": 5126,
      "count": 2227,
      "max": [
        1.0,
        1.0,
        1.0
      ],
      "min": [
        -1.0,
        -1.0,
        -1.0
      ],
      "type": "VEC3"
    },
    {
      "bufferView": 3,
      "componentType": 5126,
      "count": 2227,
      "max": [
        1.0,
        1.0,
        1.0,
        1.0
      ],
      "min": [
        -1.0,
        -1.0,
        -1.0,
        -1.0
      ],
      "type": "VEC4"
    },
    {
      "bufferView": 1,
      "componentType": 5126,
      "count": 2227,
      "max": [
        0.9886689782142639,
        0.9953780174255371
      ],
      "min": [
        0.0020000000949949026,
        0.0020000000949949026
      ],
      "type": "VEC2"
    },
    {
      "bufferView": 0,
      "componentType": 5125,
      "count": 5796,
      "type": "SCALAR"
    },
    {
      "bufferView": 2,
      "byteOffset": 53448,
      "componentType": 5126,
      "count": 3015,
      "max": [
        4.150135040283203,
        0.6205229759216309,
        0.8560529947280884
      ],
      "min": [
        -4.159428119659424,
        -51.180267333984375,
        -0.8560550212860107
      ],
      "type": "VEC3"
    },
    {
      "bufferView": 2,
      "byteOffset": 89628,
      "componentType": 5126,
      "count": 3015,
      "max": [
        1.0,
        1.0,
        1.0
      ],
      "min": [
        -1.0,
        -1.0,
        -1.0
      ],
      "type": "VEC3"
    },
    {
      "bufferView": 3,
      "byteOffset": 35632,
      "componentType": 5126,
      "count": 3015,
      "max": [
        1.0,
        0.9999514222145081,
        0.9999998211860657,
        1.0
      ],
      "min": [
        -1.0,
        -1.0,
        -0.9999998211860657,
        -1.0
      ],
      "type": "VEC4"
    },
    {
      "bufferView": 1,
      "byteOffset": 17816,
      "componentType": 5126,
      "count": 3015,
      "max": [
        0.9886689782142639,
        0.996740996837616
      ],
      "min": [
        0.0020000000949949026,
        0.17834800481796265
      ],
      "type": "VEC2"
    },
    {
      "bufferView": 0,
      "byteOffset": 23184,
      "componentType": 5125,
      "count": 11562,
      "type": "SCALAR"
    },
    {
      "bufferView": 2,
      "byteOffset": 125808,
      "componentType": 5126,
      "count": 8182,
      "max": [
        3.758089065551758,
        0.6205229759216309,
        0.8630539774894714
      ],
      "min": [
        -3.785715103149414,
        -51.180267333984375,
        -0.8630560040473938
      ],
      "type": "VEC3"
    },
    {
      "bufferView": 2,
      "byteOffset": 223992,
      "componentType": 5126,
      "count": 8182,
      "max": [
        1.0,
        1.0,
        1.0
      ],
      "min": [
        -1.0,
        -1.0,
        -1.0
      ],
      "type": "VEC3"
    },
    {
      "bufferView": 3,
      "byteOffset": 83872,
      "componentType": 5126,
      "count": 8182,
      "max": [
        1.0,
        0.9999991059303284,
        1.0,
        1.0
      ],
      "min": [
        -1.0,
        -0.9999998211860657,
        -1.0,
        -1.0
      ],
      "type": "VEC4"
    },
    {
      "bufferView": 1,
      "byteOffset": 41936,
      "componentType": 5126,
      "count": 8182,
      "max": [
        0.9980000257492065,
        0.9956870079040527
      ],
      "min": [
        0.0025220001116394997,
        0.05990200117230415
      ],
      "type": "VEC2"
    },
    {
      "bufferView": 0,
      "byteOffset": 69432,
      "componentType": 5125,
      "count": 30648,
      "type": "SCALAR"
    }
  ],
  "asset": {
    "extras": {
      "author": "Dharvey296 (https://sketchfab.com/dharvey296)",
      "license": "CC-BY-4.0 (http://creativecommons.org/licenses/by/4.0/)",
      "source": "https://sketchfab.com/3d-models/final-fantasy-7-buster-sword-9b931e7276c54c25ba919393f23500e4",
      "title": "Final Fantasy 7: Buster Sword"
    },
    "generator": "Sketchfab-12.68.0",
    "version": "2.0"
  },
  "bufferViews": [
    {
      "buffer": 0,
      "byteLength": 192024,
      "name": "floatBufferViews",
      "target": 34963
    },
    {
      "buffer": 0,
      "byteLength": 107392,
      "byteOffset": 192024,
      "byteStride": 8,
      "name": "floatBufferViews",
      "target": 34962
    },
    {
      "buffer": 0,
      "byteLength": 322176,
      "byteOffset": 299416,
      "byteStride": 12,
      "name": "floatBufferViews",
      "target": 34962
    },
    {
      "buffer": 0,
      "byteLength": 214784,
      "byteOffset": 621592,
      "byteStride": 16,
      "name": "floatBufferViews",
      "target": 34962
    }
  ],
  "buffers": [
    {
      "byteLength": 836376,
      "uri": "scene.bin"
    }
  ],
  "images": [
    {
      "uri": "textures/material_0_baseColor.png"
    },
    {
      "uri": "textures/material_0_metallicRoughness.png"
    },
    {
      "uri": "textures/material_0_normal.png"
    }
  ],
  "materials": [
    {
      "doubleSided": true,
      "name": "material_0",
      "normalTexture": {
        "index": 2
      },
      "pbrMetallicRoughness": {
        "baseColorTexture": {
          "index": 0
        },
        "metallicFactor": 0.9,
        "metallicRoughnessTexture": {
          "index": 1
        },
        "roughnessFactor": 0.89
      }
    }
  ],
  "meshes": [
    {
      "name": "Object_0",
      "primitives": [
        {
          "attributes": {
            "NORMAL": 1,
            "POSITION": 0,
            "TANGENT": 2,
            "TEXCOORD_0": 3
          },
          "indices": 4,
          "material": 0,
          "mode": 4
        }
      ]
    },
    {
      "name": "Object_1",
      "primitives": [
        {
          "attributes": {
            "NORMAL": 6,
            "POSITION": 5,
            "TANGENT": 7,
            "TEXCOORD_0": 8
          },
          "indices": 9,
          "material": 0,
          "mode": 4
        }
      ]
    },
    {
      "name": "Object_2",
      "primitives": [
        {
          "attributes": {
            "NORMAL": 11,
            "POSITION": 10,
            "TANGENT": 12,
            "TEXCOORD_0": 13
          },
          "indices": 14,
          "material": 0,
          "mode": 4
        }
      ]
    }
  ],
  "nodes": [
    {
      "children": [
        1
      ],
      "matrix": [
        -0.009480263106524944,
        -0.6358199715614317,
        -0.7717791795730592,
        0.0,
        -2.220446049250313e-16,
        0.7718138694763185,
        -0.6358485221862791,
        0.0,
        0.9999550580978394,
        -0.006028011441230772,
        -0.007316998206079008,
        0.0,
        -0.004700221586972475,
        19.51863098144531,
        9.206937789916996,
        1.0
      ],
      "name": "Sketchfab_model"
    },
    {
      "children": [
        2,
        3,
        4
      ],
      "name": "Buster_Test.obj.cleaner.gles"
    },
    {
      "mesh": 0,
      "name": "Object_2"
    },
    {
      "mesh": 1,
      "name": "Object_3"
    },
    {
      "mesh": 2,
      "name": "Object_4"
    }
  ],
  "samplers": [
    {
      "magFilter": 9729,
      "minFilter": 9987,
      "wrapS": 10497,
      "wrapT": 10497
    }
  ],
  "scene": 0,
  "scenes": [
    {
      "name": "Sketchfab_Scene",
      "nodes": [
        0
      ]
    }
  ],
  "textures": [
    {
      "sampler": 0,
      "source": 0
    },
    {
      "sampler": 0,
      "source": 1
    },
    {
      "sampler": 0,
      "source": 2
    }
  ]
}
