{
  "accessors": [
    {
      "bufferView": 2,
      "componentType": 5126,
      "count": 2722,
      "max": [
        0.8252099752426147,
        0.8246170282363892,
        2.394550085067749
      ],
      "min": [
        -0.8240249752998352,
        -0.8246170282363892,
        0.059108998626470566
      ],
      "type": "VEC3"
    },
    {
      "bufferView": 2,
      "byteOffset": 32664,
      "componentType": 5126,
      "count": 2722,
      "max": [
        0.9999990463256836,
        0.9999990463256836,
        1.0
      ],
      "min": [
        -0.9999990463256836,
        -0.9999990463256836,
        -1.0
      ],
      "type": "VEC3"
    },
    {
      "bufferView": 1,
      "componentType": 5126,
      "count": 2722,
      "max": [
        0.9276959896087646,
        0.7957779765129089
      ],
      "min": [
        0.009688000194728374,
        0.009688000194728374
      ],
      "type": "VEC2"
    },
    {
      "bufferView": 0,
      "componentType": 5125,
      "count": 15402,
      "type": "SCALAR"
    },
    {
      "bufferView": 2,
      "byteOffset": 65328,
      "componentType": 5126,
      "count": 1964,
      "max": [
        0.6836770176887512,
        0.4189690053462982,
        2.311002016067505
      ],
      "min": [
        -0.5861690044403076,
        -0.30070701241493225,
        0.19671499729156494
      ],
      "type": "VEC3"
    },
    {
      "bufferView": 2,
      "byteOffset": 88896,
      "componentType": 5126,
      "count": 1964,
      "max": [
        1.0,
        1.0,
        1.0
      ],
      "min": [
        -1.0,
        -1.0,
        -1.0
      ],
      "type": "VEC3"
    },
    {
      "bufferView": 1,
      "byteOffset": 21776,
      "componentType": 5126,
      "count": 1964,
      "max": [
        0.9826800227165222,
        0.9903119802474976
      ],
      "min": [
        0.009688000194728374,
        0.009688000194728374
      ],
      "type": "VEC2"
    },
    {
      "bufferView": 0,
      "byteOffset": 61608,
      "componentType": 5125,
      "count": 9948,
      "type": "SCALAR"
    },
    {
      "bufferView": 2,
      "byteOffset": 112464,
      "componentType": 5126,
      "count": 1087,
      "max": [
        0.7023580074310303,
        0.7527920007705688,
        1.6181859970092773
      ],
      "min": [
        -0.7644389867782593,
        -0.752776026725769,
        0.08400200307369232
      ],
      "type": "VEC3"
    },
    {
      "bufferView": 2,
      "byteOffset": 125508,
      "componentType": 5126,
      "count": 1087,
      "max": [
        0.9999978542327881,
        0.9946390986442566,
        0.9976146221160889
      ],
      "min": [
        -0.8821892738342285,
        -0.9930589199066162,
        -0.3110061585903168
      ],
      "type": "VEC3"
    },
    {
      "bufferView": 1,
      "byteOffset": 37488,
      "componentType": 5126,
      "count": 1087,
      "max": [
        0.9584010243415833,
        0.9456049799919128
      ],
      "min": [
        0.2797220051288605,
        0.4764440059661865
      ],
      "type": "VEC2"
    },
    {
      "bufferView": 0,
      "byteOffset": 101400,
      "componentType": 5125,
      "count": 5865,
      "type": "SCALAR"
    }
  ],
  "asset": {
    "extras": {
      "author": "lmenjoulet (https://sketchfab.com/lmenjoulet)",
      "license": "CC-BY-NC-4.0 (http://creativecommons.org/licenses/by-nc/4.0/)",
      "source": "https://sketchfab.com/3d-models/dofus-emeraude-61cc07edd271423a876375c3d8f8ebe4",
      "title": "Dofus Emeraude"
    },
    "generator": "Sketchfab-12.67.0",
    "version": "2.0"
  },
  "bufferViews": [
    {
      "buffer": 0,
      "byteLength": 124860,
      "name": "floatBufferViews",
      "target": 34963
    },
    {
      "buffer": 0,
      "byteLength": 46184,
      "byteOffset": 124860,
      "byteStride": 8,
      "name": "floatBufferViews",
      "target": 34962
    },
    {
      "buffer": 0,
      "byteLength": 138552,
      "byteOffset": 171044,
      "byteStride": 12,
      "name": "floatBufferViews",
      "target": 34962
    }
  ],
  "buffers": [
    {
      "byteLength": 309596,
      "uri": "scene.bin"
    }
  ],
  "images": [
    {
      "uri": "textures/coquille_baseColor.png"
    },
    {
      "uri": "textures/s_moche_emissive.png"
    }
  ],
  "materials": [
    {
      "name": "coquille",
      "pbrMetallicRoughness": {
        "baseColorTexture": {
          "index": 0
        },
        "metallicFactor": 0.0
      }
    },
    {
      "doubleSided": true,
      "emissiveFactor": [
        0.7467212666216734,
        0.7467212666216734,
        0.7467212666216734
      ],
      "emissiveTexture": {
        "index": 1
      },
      "name": "s_moche",
      "pbrMetallicRoughness": {
        "baseColorFactor": [
          0.0,
          0.0,
          0.0,
          1.0
        ],
        "metallicFactor": 0.0
      }
    },
    {
      "alphaMode": "BLEND",
      "name": "shadow",
      "pbrMetallicRoughness": {
        "baseColorFactor": [
          0.0,
          0.0,
          0.0,
          0.5
        ],
        "metallicFactor": 0.0
      }
    }
  ],
  "meshes": [
    {
      "name": "Object_0",
      "primitives": [
        {
          "attributes": {
            "NORMAL": 1,
            "POSITION": 0,
            "TEXCOORD_0": 2
          },
          "indices": 3,
          "material": 0,
          "mode": 4
        }
      ]
    },
    {
      "name": "Object_1",
      "primitives": [
        {
          "attributes": {
            "NORMAL": 5,
            "POSITION": 4,
            "TEXCOORD_0": 6
          },
          "indices": 7,
          "material": 1,
          "mode": 4
        }
      ]
    },
    {
      "name": "Object_2",
      "primitives": [
        {
          "attributes": {
            "NORMAL": 9,
            "POSITION": 8,
            "TEXCOORD_0": 10
          },
          "indices": 11,
          "material": 2,
          "mode": 4
        }
      ]
    }
  ],
  "nodes": [
    {
      "children": [
        1
      ],
      "matrix": [
        1.0,
        0.0,
        0.0,
        0.0,
        0.0,
        2.220446049250313e-16,
        -1.0,
        0.0,
        0.0,
        1.0,
        2.220446049250313e-16,
        0.0,
        0.0,
        0.0,
        0.0,
        1.0
      ],
      "name": "Sketchfab_model"
    },
    {
      "children": [
        2,
        3,
        4
      ],
      "name": "dofus_emeraude.obj.cleaner.materialmerger.gles"
    },
    {
      "mesh": 0,
      "name": "Object_2"
    },
    {
      "mesh": 1,
      "name": "Object_3"
    },
    {
      "mesh": 2,
      "name": "Object_4"
    }
  ],
  "samplers": [
    {
      "magFilter": 9729,
      "minFilter": 9987,
      "wrapS": 10497,
      "wrapT": 10497
    }
  ],
  "scene": 0,
  "scenes": [
    {
      "name": "Sketchfab_Scene",
      "nodes": [
        0
      ]
    }
  ],
  "textures": [
    {
      "sampler": 0,
      "source": 0
    },
    {
      "sampler": 0,
      "source": 1
    }
  ]
}
