{
  "accessors": [
    {
      "bufferView": 2,
      "componentType": 5126,
      "count": 6941,
      "max": [
        23.260787963867188,
        9.262405395507813,
        6.259382247924805
      ],
      "min": [
        -23.274566650390625,
        -8.975997924804688,
        0.3654267489910126
      ],
      "type": "VEC3"
    },
    {
      "bufferView": 2,
      "byteOffset": 83292,
      "componentType": 5126,
      "count": 6941,
      "max": [
        0.9971632957458496,
        0.9673454165458679,
        0.9999993443489075
      ],
      "min": [
        -0.9996456503868103,
        -0.9999003410339355,
        -0.9881830215454102
      ],
      "type": "VEC3"
    },
    {
      "bufferView": 3,
      "componentType": 5126,
      "count": 6941,
      "max": [
        0.9999648928642273,
        0.9999991655349731,
        0.9995201826095581,
        1.0
      ],
      "min": [
        -0.9999886751174927,
        -0.9998872876167297,
        -0.9988834261894226,
        -1.0
      ],
      "type": "VEC4"
    },
    {
      "bufferView": 1,
      "componentType": 5126,
      "count": 6941,
      "max": [
        0.9880160093307495,
        0.9900000095367432
      ],
      "min": [
        0.009999999776482582,
        0.009999990463256836
      ],
      "type": "VEC2"
    },
    {
      "bufferView": 0,
      "componentType": 5125,
      "count": 32118,
      "type": "SCALAR"
    }
  ],
  "asset": {
    "extras": {
      "author": "Idmental (https://sketchfab.com/idmental.id)",
      "license": "CC-BY-4.0 (http://creativecommons.org/licenses/by/4.0/)",
      "source": "https://sketchfab.com/3d-models/rock-ground-lowpoly-free-68a07dbb2b7249a9a1fe131b5ab9fb78",
      "title": "ROCK GROUND LOWPOLY FREE"
    },
    "generator": "Sketchfab-12.68.0",
    "version": "2.0"
  },
  "bufferViews": [
    {
      "buffer": 0,
      "byteLength": 128472,
      "name": "floatBufferViews",
      "target": 34963
    },
    {
      "buffer": 0,
      "byteLength": 55528,
      "byteOffset": 128472,
      "byteStride": 8,
      "name": "floatBufferViews",
      "target": 34962
    },
    {
      "buffer": 0,
      "byteLength": 166584,
      "byteOffset": 184000,
      "byteStride": 12,
      "name": "floatBufferViews",
      "target": 34962
    },
    {
      "buffer": 0,
      "byteLength": 111056,
      "byteOffset": 350584,
      "byteStride": 16,
      "name": "floatBufferViews",
      "target": 34962
    }
  ],
  "buffers": [
    {
      "byteLength": 461640,
      "uri": "scene.bin"
    }
  ],
  "extensionsRequired": [
    "KHR_materials_pbrSpecularGlossiness"
  ],
  "extensionsUsed": [
    "KHR_materials_pbrSpecularGlossiness"
  ],
  "images": [
    {
      "uri": "textures/ROCKWALL_diffuse.jpeg"
    },
    {
      "uri": "textures/ROCKWALL_specularGlossiness.png"
    },
    {
      "uri": "textures/ROCKWALL_normal.png"
    }
  ],
  "materials": [
    {
      "doubleSided": true,
      "extensions": {
        "KHR_materials_pbrSpecularGlossiness": {
          "diffuseFactor": [
            1.0,
            1.0,
            1.0,
            1.0
          ],
          "diffuseTexture": {
            "index": 0
          },
          "glossinessFactor": 0.1780350704388061,
          "specularFactor": [
            0.06251178033550396,
            0.06251178033550396,
            0.06251178033550396
          ],
          "specularGlossinessTexture": {
            "index": 1
          }
        }
      },
      "name": "ROCKWALL",
      "normalTexture": {
        "index": 2
      }
    }
  ],
  "meshes": [
    {
      "name": "Object_0",
      "primitives": [
        {
          "attributes": {
            "NORMAL": 1,
            "POSITION": 0,
            "TANGENT": 2,
            "TEXCOORD_0": 3
          },
          "indices": 4,
          "material": 0,
          "mode": 4
        }
      ]
    }
  ],
  "nodes": [
    {
      "children": [
        1
      ],
      "matrix": [
        1.0,
        0.0,
        0.0,
        0.0,
        0.0,
        2.220446049250313e-16,
        -1.0,
        0.0,
        0.0,
        1.0,
        2.220446049250313e-16,
        0.0,
        0.0,
        0.0,
        0.0,
        1.0
      ],
      "name": "Sketchfab_model"
    },
    {
      "children": [
        2
      ],
      "name": "ROCK_GROUND_1.obj.cleaner.materialmerger.gles"
    },
    {
      "mesh": 0,
      "name": "Object_2"
    }
  ],
  "samplers": [
    {
      "magFilter": 9729,
      "minFilter": 9987,
      "wrapS": 10497,
      "wrapT": 10497
    }
  ],
  "scene": 0,
  "scenes": [
    {
      "name": "Sketchfab_Scene",
      "nodes": [
        0
      ]
    }
  ],
  "textures": [
    {
      "sampler": 0,
      "source": 0
    },
    {
      "sampler": 0,
      "source": 1
    },
    {
      "sampler": 0,
      "source": 2
    }
  ]
}
