{
  "accessors": [
    {
      "bufferView": 2,
      "componentType": 5126,
      "count": 2627,
      "max": [
        89.65951538085938,
        89.65951538085938,
        421.14190673828125
      ],
      "min": [
        -89.6595230102539,
        -89.65951538085938,
        -99.04712677001953
      ],
      "type": "VEC3"
    },
    {
      "bufferView": 2,
      "byteOffset": 31524,
      "componentType": 5126,
      "count": 2627,
      "max": [
        1.0,
        1.0,
        1.0
      ],
      "min": [
        -1.0,
        -1.0,
        -1.0
      ],
      "type": "VEC3"
    },
    {
      "bufferView": 1,
      "componentType": 5126,
      "count": 2627,
      "max": [
        1.03125,
        1.0
      ],
      "min": [
        0.0,
        0.0
      ],
      "type": "VEC2"
    },
    {
      "bufferView": 0,
      "componentType": 5125,
      "count": 7392,
      "type": "SCALAR"
    },
    {
      "bufferView": 2,
      "byteOffset": 63048,
      "componentType": 5126,
      "count": 2278,
      "max": [
        30.97219467163086,
        30.972185134887695,
        543.5545654296875
      ],
      "min": [
        -149.5372314453125,
        -30.972169876098633,
        367.3832092285156
      ],
      "type": "VEC3"
    },
    {
      "bufferView": 2,
      "byteOffset": 90384,
      "componentType": 5126,
      "count": 2278,
      "max": [
        0.9999997019767761,
        1.0,
        1.0
      ],
      "min": [
        -1.0,
        -1.0,
        -1.0
      ],
      "type": "VEC3"
    },
    {
      "bufferView": 1,
      "byteOffset": 21016,
      "componentType": 5126,
      "count": 2278,
      "max": [
        2.0496578216552734,
        1.4347153902053833
      ],
      "min": [
        -0.011106632649898529,
        -0.4347153306007385
      ],
      "type": "VEC2"
    },
    {
      "bufferView": 0,
      "byteOffset": 29568,
      "componentType": 5125,
      "count": 4614,
      "type": "SCALAR"
    },
    {
      "bufferView": 2,
      "byteOffset": 117720,
      "componentType": 5126,
      "count": 714,
      "max": [
        64.35017395019531,
        27.06536865234375,
        553.624267578125
      ],
      "min": [
        -127.48712921142578,
        -27.065349578857422,
        451.5904235839844
      ],
      "type": "VEC3"
    },
    {
      "bufferView": 2,
      "byteOffset": 126288,
      "componentType": 5126,
      "count": 714,
      "max": [
        1.0,
        1.0,
        1.0
      ],
      "min": [
        -1.0,
        -1.0,
        -1.0
      ],
      "type": "VEC3"
    },
    {
      "bufferView": 1,
      "byteOffset": 39240,
      "componentType": 5126,
      "count": 714,
      "max": [
        1.0416666269302368,
        1.0
      ],
      "min": [
        0.0,
        0.0
      ],
      "type": "VEC2"
    },
    {
      "bufferView": 0,
      "byteOffset": 48024,
      "componentType": 5125,
      "count": 2352,
      "type": "SCALAR"
    }
  ],
  "asset": {
    "extras": {
      "author": "Anthony Yanez (https://sketchfab.com/paulyanez)",
      "license": "CC-BY-4.0 (http://creativecommons.org/licenses/by/4.0/)",
      "source": "https://sketchfab.com/3d-models/spray-bottle-1611833f3eaa41bbba2b6944269429ab",
      "title": "Spray Bottle"
    },
    "generator": "Sketchfab-12.66.0",
    "version": "2.0"
  },
  "bufferViews": [
    {
      "buffer": 0,
      "byteLength": 57432,
      "name": "floatBufferViews",
      "target": 34963
    },
    {
      "buffer": 0,
      "byteLength": 44952,
      "byteOffset": 57432,
      "byteStride": 8,
      "name": "floatBufferViews",
      "target": 34962
    },
    {
      "buffer": 0,
      "byteLength": 134856,
      "byteOffset": 102384,
      "byteStride": 12,
      "name": "floatBufferViews",
      "target": 34962
    }
  ],
  "buffers": [
    {
      "byteLength": 237240,
      "uri": "scene.bin"
    }
  ],
  "materials": [
    {
      "alphaMode": "BLEND",
      "doubleSided": true,
      "name": "01_-_Default",
      "pbrMetallicRoughness": {
        "baseColorFactor": [
          0.87451,
          0.87451,
          0.87451,
          0.9836604725230824
        ],
        "metallicFactor": 0.23214532100793087,
        "roughnessFactor": 0.8929713596
      }
    },
    {
      "doubleSided": true,
      "name": "02_-_Default",
      "pbrMetallicRoughness": {
        "baseColorFactor": [
          0.0,
          0.043137300000000024,
          0.298039,
          1.0
        ],
        "roughnessFactor": 0.8929713596
      }
    },
    {
      "doubleSided": true,
      "name": "03_-_Default",
      "pbrMetallicRoughness": {
        "metallicFactor": 0.6200241088867188,
        "roughnessFactor": 0.8929713596
      }
    }
  ],
  "meshes": [
    {
      "name": "Spray Bottle_01 - Default_0",
      "primitives": [
        {
          "attributes": {
            "NORMAL": 1,
            "POSITION": 0,
            "TEXCOORD_0": 2
          },
          "indices": 3,
          "material": 0,
          "mode": 4
        }
      ]
    },
    {
      "name": "Spray Bottle_02 - Default_0",
      "primitives": [
        {
          "attributes": {
            "NORMAL": 5,
            "POSITION": 4,
            "TEXCOORD_0": 6
          },
          "indices": 7,
          "material": 1,
          "mode": 4
        }
      ]
    },
    {
      "name": "Spray Bottle_03 - Default_0",
      "primitives": [
        {
          "attributes": {
            "NORMAL": 9,
            "POSITION": 8,
            "TEXCOORD_0": 10
          },
          "indices": 11,
          "material": 2,
          "mode": 4
        }
      ]
    }
  ],
  "nodes": [
    {
      "children": [
        1
      ],
      "matrix": [
        0.006529619451612234,
        0.0,
        0.0,
        0.0,
        0.0,
        1.4498667714440381e-18,
        -0.006529619451612234,
        0.0,
        0.0,
        0.006529619451612234,
        1.4498667714440381e-18,
        0.0,
        0.0,
        0.0,
        0.0,
        1.0
      ],
      "name": "Sketchfab_model"
    },
    {
      "children": [
        2
      ],
      "matrix": [
        1.0,
        0.0,
        0.0,
        0.0,
        0.0,
        0.0,
        1.0,
        0.0,
        0.0,
        -1.0,
        0.0,
        0.0,
        0.0,
        0.0,
        0.0,
        1.0
      ],
      "name": "1e98a55fd8d443d4b2580473322ae862.fbx"
    },
    {
      "children": [
        3
      ],
      "name": "RootNode"
    },
    {
      "children": [
        4,
        5,
        6
      ],
      "matrix": [
        1.0,
        0.0,
        0.0,
        0.0,
        0.0,
        2.220446049250313e-16,
        -1.0,
        0.0,
        0.0,
        1.0,
        2.220446049250313e-16,
        0.0,
        0.0,
        0.0,
        0.0,
        1.0
      ],
      "name": "Spray Bottle"
    },
    {
      "mesh": 0,
      "name": "Spray Bottle_01 - Default_0"
    },
    {
      "mesh": 1,
      "name": "Spray Bottle_02 - Default_0"
    },
    {
      "mesh": 2,
      "name": "Spray Bottle_03 - Default_0"
    }
  ],
  "scene": 0,
  "scenes": [
    {
      "name": "Sketchfab_Scene",
      "nodes": [
        0
      ]
    }
  ]
}
