{
	"asset":{
		"generator":"Khronos glTF Blender I/O v4.3.47",
		"version":"2.0"
	},
	"extensionsUsed":[
		"KHR_materials_emissive_strength",
		"KHR_materials_specular",
		"KHR_materials_ior",
		"KHR_texture_transform"
	],
	"extensionsRequired":[
		"KHR_texture_transform"
	],
	"scene":0,
	"scenes":[
		{
			"name":"Scene",
			"nodes":[
				0,
				1,
				2,
				3,
				4,
				5,
				6,
				7,
				8,
				9,
				10,
				11
			]
		}
	],
	"nodes":[
		{
			"mesh":0,
			"name":"Volume_Knob",
			"scale":[
				0.6415815949440002,
				0.6415815949440002,
				0.6415815949440002
			],
			"translation":[
				0.2730969190597534,
				0.9136567711830139,
				0.8411445617675781
			]
		},
		{
			"mesh":1,
			"name":"Radio_bady",
			"scale":[
				0.6415815949440002,
				0.6415815949440002,
				0.6415815949440002
			],
			"translation":[
				-0.04778079688549042,
				0.9085577726364136,
				0.5021860599517822
			]
		},
		{
			"mesh":2,
			"name":"Tuningup",
			"scale":[
				0.6415815949440002,
				0.6415815949440002,
				0.6415815949440002
			],
			"translation":[
				-0.04707222059369087,
				1.0679199695587158,
				0.8274813294410706
			]
		},
		{
			"mesh":3,
			"name":"Tuning-Botom",
			"scale":[
				0.6415815949440002,
				0.6415815949440002,
				0.6415815949440002
			],
			"translation":[
				-0.04707222059369087,
				0.7728146314620972,
				0.8274809718132019
			]
		},
		{
			"mesh":4,
			"name":"BigLED",
			"scale":[
				0.6415815949440002,
				0.6415815949440002,
				0.6415815949440002
			],
			"translation":[
				-0.04667741060256958,
				0.9143340587615967,
				0.7785179018974304
			]
		},
		{
			"mesh":5,
			"name":"SmallLED",
			"scale":[
				0.6415815949440002,
				0.6415815949440002,
				0.6415815949440002
			],
			"translation":[
				-0.0466773621737957,
				0.9725493788719177,
				0.7813217639923096
			]
		},
		{
			"mesh":6,
			"name":"Speaker_Grid",
			"scale":[
				0.6415815949440002,
				0.6415815949440002,
				0.6415815949440002
			],
			"translation":[
				-0.36794114112854004,
				0.9127495884895325,
				0.7937297224998474
			]
		},
		{
			"mesh":7,
			"name":"Plant",
			"scale":[
				0.6415815949440002,
				0.6415815949440002,
				0.6415815949440002
			],
			"translation":[
				0.2733249366283417,
				0.9173441529273987,
				0.8164685368537903
			]
		},
		{
			"mesh":8,
			"name":"leg-1",
			"scale":[
				0.6415815949440002,
				0.6415815949440002,
				0.6415815949440002
			],
			"translation":[
				-0.5145780444145203,
				0.5613727569580078,
				0.7640089392662048
			]
		},
		{
			"mesh":9,
			"name":"leg-2",
			"scale":[
				0.6415815949440002,
				0.6415815949440002,
				0.6415815949440002
			],
			"translation":[
				-0.5145780444145203,
				0.5613727569580078,
				0.24226653575897217
			]
		},
		{
			"mesh":10,
			"name":"leg-3",
			"scale":[
				0.6415815949440002,
				0.6415815949440002,
				0.6415815949440002
			],
			"translation":[
				0.4062912166118622,
				0.5613727569580078,
				0.7640089392662048
			]
		},
		{
			"mesh":11,
			"name":"leg-4",
			"scale":[
				0.6415815949440002,
				0.6415815949440002,
				0.6415815949440002
			],
			"translation":[
				0.4062912166118622,
				0.5613727569580078,
				0.24226653575897217
			]
		}
	],
	"materials":[
		{
			"doubleSided":true,
			"name":"Leather 5.001",
			"normalTexture":{
				"extensions":{
					"KHR_texture_transform":{
						"offset":[
							0,
							0.5
						],
						"scale":[
							0.5,
							0.5
						]
					}
				},
				"index":0,
				"texCoord":1
			},
			"pbrMetallicRoughness":{
				"baseColorTexture":{
					"extensions":{
						"KHR_texture_transform":{
							"offset":[
								0,
								0.5
							],
							"scale":[
								0.5,
								0.5
							]
						}
					},
					"index":1,
					"texCoord":1
				},
				"metallicFactor":0,
				"metallicRoughnessTexture":{
					"extensions":{
						"KHR_texture_transform":{
							"offset":[
								0,
								0.5
							],
							"scale":[
								0.5,
								0.5
							]
						}
					},
					"index":2,
					"texCoord":1
				}
			}
		},
		{
			"doubleSided":true,
			"name":"Mid-tone wood",
			"pbrMetallicRoughness":{
				"baseColorTexture":{
					"index":3,
					"texCoord":1
				},
				"metallicFactor":0,
				"roughnessFactor":0.5
			}
		},
		{
			"doubleSided":true,
			"name":"White painted metal",
			"pbrMetallicRoughness":{
				"baseColorTexture":{
					"index":4,
					"texCoord":1
				},
				"metallicFactor":0,
				"roughnessFactor":0.5
			}
		},
		{
			"doubleSided":true,
			"name":"Leather 5",
			"normalTexture":{
				"index":5,
				"texCoord":1
			},
			"pbrMetallicRoughness":{
				"baseColorTexture":{
					"index":6,
					"texCoord":1
				},
				"metallicFactor":0,
				"metallicRoughnessTexture":{
					"index":7,
					"texCoord":1
				}
			}
		},
		{
			"doubleSided":true,
			"emissiveFactor":[
				1,
				1,
				1
			],
			"extensions":{
				"KHR_materials_emissive_strength":{
					"emissiveStrength":4
				}
			},
			"name":"LED Bulb",
			"pbrMetallicRoughness":{
				"baseColorFactor":[
					0,
					0,
					0,
					1
				]
			}
		},
		{
			"doubleSided":true,
			"emissiveFactor":[
				1,
				1,
				1
			],
			"extensions":{
				"KHR_materials_emissive_strength":{
					"emissiveStrength":4
				}
			},
			"name":"LED Bulb.001",
			"pbrMetallicRoughness":{
				"baseColorFactor":[
					0,
					0,
					0,
					1
				]
			}
		},
		{
			"doubleSided":true,
			"extensions":{
				"KHR_materials_specular":{
					"specularColorFactor":[
						2.0,
						2.0,
						2.0
					]
				},
				"KHR_materials_ior":{
					"ior":1.4500000476837158
				}
			},
			"name":"Metal wire",
			"normalTexture":{
				"index":8,
				"scale":3,
				"texCoord":1
			},
			"pbrMetallicRoughness":{
				"baseColorTexture":{
					"index":9,
					"texCoord":1
				},
				"metallicRoughnessTexture":{
					"index":10,
					"texCoord":1
				}
			}
		},
		{
			"doubleSided":true,
			"name":"Brushed  Aluminium",
			"pbrMetallicRoughness":{
				"baseColorFactor":[
					0.7914513945579529,
					0.7914513945579529,
					0.7914513945579529,
					1
				],
				"metallicFactor":0.949999988079071
			}
		},
		{
			"doubleSided":true,
			"name":"Mid-tone wood",
			"pbrMetallicRoughness":{
				"baseColorTexture":{
					"index":3
				},
				"metallicFactor":0,
				"roughnessFactor":0.5
			}
		}
	],
	"meshes":[
		{
			"name":"\u67f1\u4f53",
			"primitives":[
				{
					"attributes":{
						"POSITION":0,
						"NORMAL":1,
						"TEXCOORD_0":2,
						"TEXCOORD_1":3
					},
					"indices":4,
					"material":0
				}
			]
		},
		{
			"name":"\u5e73\u9762",
			"primitives":[
				{
					"attributes":{
						"POSITION":5,
						"NORMAL":6,
						"TEXCOORD_0":7,
						"TEXCOORD_1":8
					},
					"indices":9,
					"material":1
				},
				{
					"attributes":{
						"POSITION":10,
						"NORMAL":11,
						"TEXCOORD_0":12,
						"TEXCOORD_1":13
					},
					"indices":14,
					"material":2
				}
			]
		},
		{
			"name":"\u67f1\u4f53.002",
			"primitives":[
				{
					"attributes":{
						"POSITION":15,
						"NORMAL":16,
						"TEXCOORD_0":17,
						"TEXCOORD_1":18
					},
					"indices":19,
					"material":3
				}
			]
		},
		{
			"name":"\u67f1\u4f53.003",
			"primitives":[
				{
					"attributes":{
						"POSITION":20,
						"NORMAL":21,
						"TEXCOORD_0":22,
						"TEXCOORD_1":23
					},
					"indices":19,
					"material":3
				}
			]
		},
		{
			"name":"\u7403\u4f53",
			"primitives":[
				{
					"attributes":{
						"POSITION":24,
						"NORMAL":25,
						"TEXCOORD_0":26,
						"TEXCOORD_1":27
					},
					"indices":28,
					"material":4
				}
			]
		},
		{
			"name":"\u7403\u4f53.001",
			"primitives":[
				{
					"attributes":{
						"POSITION":29,
						"NORMAL":30,
						"TEXCOORD_0":31,
						"TEXCOORD_1":32
					},
					"indices":33,
					"material":5
				}
			]
		},
		{
			"name":"\u5706\u73af",
			"primitives":[
				{
					"attributes":{
						"POSITION":34,
						"NORMAL":35,
						"TEXCOORD_0":36,
						"TEXCOORD_1":37
					},
					"indices":38,
					"material":6
				}
			]
		},
		{
			"name":"\u67f1\u4f53.004",
			"primitives":[
				{
					"attributes":{
						"POSITION":39,
						"NORMAL":40,
						"TEXCOORD_0":41,
						"TEXCOORD_1":42
					},
					"indices":43,
					"material":7
				}
			]
		},
		{
			"name":"\u7403\u4f53.002",
			"primitives":[
				{
					"attributes":{
						"POSITION":44,
						"NORMAL":45,
						"TEXCOORD_0":46
					},
					"indices":47,
					"material":8
				}
			]
		},
		{
			"name":"\u7403\u4f53.003",
			"primitives":[
				{
					"attributes":{
						"POSITION":48,
						"NORMAL":49,
						"TEXCOORD_0":50,
						"TEXCOORD_1":51
					},
					"indices":47,
					"material":1
				}
			]
		},
		{
			"name":"\u7403\u4f53.004",
			"primitives":[
				{
					"attributes":{
						"POSITION":52,
						"NORMAL":53,
						"TEXCOORD_0":54
					},
					"indices":47,
					"material":8
				}
			]
		},
		{
			"name":"\u7403\u4f53.005",
			"primitives":[
				{
					"attributes":{
						"POSITION":55,
						"NORMAL":56,
						"TEXCOORD_0":57
					},
					"indices":47,
					"material":8
				}
			]
		}
	],
	"textures":[
		{
			"sampler":0,
			"source":0
		},
		{
			"sampler":0,
			"source":1
		},
		{
			"sampler":0,
			"source":2
		},
		{
			"sampler":0,
			"source":3
		},
		{
			"sampler":0,
			"source":4
		},
		{
			"sampler":0,
			"source":0
		},
		{
			"sampler":0,
			"source":1
		},
		{
			"sampler":0,
			"source":2
		},
		{
			"sampler":0,
			"source":5
		},
		{
			"sampler":0,
			"source":6
		},
		{
			"sampler":0,
			"source":7
		}
	],
	"images":[
		{
			"mimeType":"image/jpeg",
			"name":"leather 5_4K_NormalGL",
			"uri":"leather%205_4K_NormalGL.jpg"
		},
		{
			"mimeType":"image/jpeg",
			"name":"leather 5_4K_Color",
			"uri":"leather%205_4K_Color.jpg"
		},
		{
			"mimeType":"image/png",
			"name":"leather 5_4K_Roughness",
			"uri":"leather%205_4K_Roughness.png"
		},
		{
			"mimeType":"image/png",
			"name":"\u672a\u547d\u540d",
			"uri":"%E6%9C%AA%E5%91%BD%E5%90%8D.png"
		},
		{
			"mimeType":"image/png",
			"name":"bady-2",
			"uri":"bady-2.png"
		},
		{
			"mimeType":"image/jpeg",
			"name":"plane_divided_DefaultMaterial_Normal",
			"uri":"plane_divided_DefaultMaterial_Normal.jpg"
		},
		{
			"mimeType":"image/jpeg",
			"name":"plane_divided_DefaultMaterial_BaseColor.jpg",
			"uri":"plane_divided_DefaultMaterial_BaseColor_jpg.jpg"
		},
		{
			"mimeType":"image/png",
			"name":"plane_divided_DefaultMaterial_Roughness",
			"uri":"plane_divided_DefaultMaterial_Roughness.png"
		}
	],
	"accessors":[
		{
			"bufferView":0,
			"componentType":5126,
			"count":442,
			"max":[
				0.20646072924137115,
				0.2064608484506607,
				0.10302066057920456
			],
			"min":[
				-0.20646075904369354,
				-0.20646069943904877,
				-0.10302067548036575
			],
			"type":"VEC3"
		},
		{
			"bufferView":1,
			"componentType":5126,
			"count":442,
			"type":"VEC3"
		},
		{
			"bufferView":2,
			"componentType":5126,
			"count":442,
			"type":"VEC2"
		},
		{
			"bufferView":3,
			"componentType":5126,
			"count":442,
			"type":"VEC2"
		},
		{
			"bufferView":4,
			"componentType":5123,
			"count":1140,
			"type":"SCALAR"
		},
		{
			"bufferView":5,
			"componentType":5126,
			"count":264,
			"max":[
				1.0644999742507935,
				0.5535832643508911,
				0.5000002980232239
			],
			"min":[
				-1.0644999742507935,
				-0.5535846948623657,
				-0.4999997019767761
			],
			"type":"VEC3"
		},
		{
			"bufferView":6,
			"componentType":5126,
			"count":264,
			"type":"VEC3"
		},
		{
			"bufferView":7,
			"componentType":5126,
			"count":264,
			"type":"VEC2"
		},
		{
			"bufferView":8,
			"componentType":5126,
			"count":264,
			"type":"VEC2"
		},
		{
			"bufferView":9,
			"componentType":5123,
			"count":894,
			"type":"SCALAR"
		},
		{
			"bufferView":10,
			"componentType":5126,
			"count":4,
			"max":[
				0.97693932056427,
				0.44515156745910645,
				0.4458017945289612
			],
			"min":[
				-0.9769393801689148,
				-0.44515299797058105,
				0.44580167531967163
			],
			"type":"VEC3"
		},
		{
			"bufferView":11,
			"componentType":5126,
			"count":4,
			"type":"VEC3"
		},
		{
			"bufferView":12,
			"componentType":5126,
			"count":4,
			"type":"VEC2"
		},
		{
			"bufferView":13,
			"componentType":5126,
			"count":4,
			"type":"VEC2"
		},
		{
			"bufferView":14,
			"componentType":5123,
			"count":6,
			"type":"SCALAR"
		},
		{
			"bufferView":15,
			"componentType":5126,
			"count":314,
			"max":[
				0.08563195914030075,
				0.0856320858001709,
				0.02270662784576416
			],
			"min":[
				-0.08563197404146194,
				-0.0856318473815918,
				-0.0792766809463501
			],
			"type":"VEC3"
		},
		{
			"bufferView":16,
			"componentType":5126,
			"count":314,
			"type":"VEC3"
		},
		{
			"bufferView":17,
			"componentType":5126,
			"count":314,
			"type":"VEC2"
		},
		{
			"bufferView":18,
			"componentType":5126,
			"count":314,
			"type":"VEC2"
		},
		{
			"bufferView":19,
			"componentType":5123,
			"count":948,
			"type":"SCALAR"
		},
		{
			"bufferView":20,
			"componentType":5126,
			"count":314,
			"max":[
				0.08563195914030075,
				0.0856320858001709,
				0.022706985473632812
			],
			"min":[
				-0.08563197404146194,
				-0.0856318473815918,
				-0.07927632331848145
			],
			"type":"VEC3"
		},
		{
			"bufferView":21,
			"componentType":5126,
			"count":314,
			"type":"VEC3"
		},
		{
			"bufferView":22,
			"componentType":5126,
			"count":314,
			"type":"VEC2"
		},
		{
			"bufferView":23,
			"componentType":5126,
			"count":314,
			"type":"VEC2"
		},
		{
			"bufferView":24,
			"componentType":5126,
			"count":669,
			"max":[
				0.027714043855667114,
				0.027713537216186523,
				0.027713775634765625
			],
			"min":[
				-0.027713902294635773,
				-0.02771449089050293,
				-0.027714252471923828
			],
			"type":"VEC3"
		},
		{
			"bufferView":25,
			"componentType":5126,
			"count":669,
			"type":"VEC3"
		},
		{
			"bufferView":26,
			"componentType":5126,
			"count":669,
			"type":"VEC2"
		},
		{
			"bufferView":27,
			"componentType":5126,
			"count":669,
			"type":"VEC2"
		},
		{
			"bufferView":28,
			"componentType":5123,
			"count":2880,
			"type":"SCALAR"
		},
		{
			"bufferView":29,
			"componentType":5126,
			"count":655,
			"max":[
				0.017567545175552368,
				0.017566561698913574,
				0.01756739616394043
			],
			"min":[
				-0.01756756752729416,
				-0.017568469047546387,
				-0.01756763458251953
			],
			"type":"VEC3"
		},
		{
			"bufferView":30,
			"componentType":5126,
			"count":655,
			"type":"VEC3"
		},
		{
			"bufferView":31,
			"componentType":5126,
			"count":655,
			"type":"VEC2"
		},
		{
			"bufferView":32,
			"componentType":5126,
			"count":655,
			"type":"VEC2"
		},
		{
			"bufferView":33,
			"componentType":5123,
			"count":2880,
			"type":"SCALAR"
		},
		{
			"bufferView":34,
			"componentType":5126,
			"count":224,
			"max":[
				0.3571595251560211,
				0.35715925693511963,
				0.005999445915222168
			],
			"min":[
				-0.3571593165397644,
				-0.35715949535369873,
				-0.014000535011291504
			],
			"type":"VEC3"
		},
		{
			"bufferView":35,
			"componentType":5126,
			"count":224,
			"type":"VEC3"
		},
		{
			"bufferView":36,
			"componentType":5126,
			"count":224,
			"type":"VEC2"
		},
		{
			"bufferView":37,
			"componentType":5126,
			"count":224,
			"type":"VEC2"
		},
		{
			"bufferView":38,
			"componentType":5123,
			"count":1140,
			"type":"SCALAR"
		},
		{
			"bufferView":39,
			"componentType":5126,
			"count":354,
			"max":[
				0.318083256483078,
				0.31808340549468994,
				0.018677830696105957
			],
			"min":[
				-0.31808316707611084,
				-0.31808292865753174,
				-0.05135488510131836
			],
			"type":"VEC3"
		},
		{
			"bufferView":40,
			"componentType":5126,
			"count":354,
			"type":"VEC3"
		},
		{
			"bufferView":41,
			"componentType":5126,
			"count":354,
			"type":"VEC2"
		},
		{
			"bufferView":42,
			"componentType":5126,
			"count":354,
			"type":"VEC2"
		},
		{
			"bufferView":43,
			"componentType":5123,
			"count":1044,
			"type":"SCALAR"
		},
		{
			"bufferView":44,
			"componentType":5126,
			"count":1984,
			"max":[
				0.04955434799194336,
				0.049553871154785156,
				0.04955434799194336
			],
			"min":[
				-0.04955446720123291,
				-0.049555063247680664,
				-0.04955458641052246
			],
			"type":"VEC3"
		},
		{
			"bufferView":45,
			"componentType":5126,
			"count":1984,
			"type":"VEC3"
		},
		{
			"bufferView":46,
			"componentType":5126,
			"count":1984,
			"type":"VEC2"
		},
		{
			"bufferView":47,
			"componentType":5123,
			"count":2880,
			"type":"SCALAR"
		},
		{
			"bufferView":48,
			"componentType":5126,
			"count":1984,
			"max":[
				0.04955434799194336,
				0.049553871154785156,
				0.04955410957336426
			],
			"min":[
				-0.04955446720123291,
				-0.049555063247680664,
				-0.0495547354221344
			],
			"type":"VEC3"
		},
		{
			"bufferView":49,
			"componentType":5126,
			"count":1984,
			"type":"VEC3"
		},
		{
			"bufferView":50,
			"componentType":5126,
			"count":1984,
			"type":"VEC2"
		},
		{
			"bufferView":51,
			"componentType":5126,
			"count":1984,
			"type":"VEC2"
		},
		{
			"bufferView":52,
			"componentType":5126,
			"count":1984,
			"max":[
				0.04955446720123291,
				0.049553871154785156,
				0.04955434799194336
			],
			"min":[
				-0.04955434799194336,
				-0.049555063247680664,
				-0.04955458641052246
			],
			"type":"VEC3"
		},
		{
			"bufferView":53,
			"componentType":5126,
			"count":1984,
			"type":"VEC3"
		},
		{
			"bufferView":54,
			"componentType":5126,
			"count":1984,
			"type":"VEC2"
		},
		{
			"bufferView":55,
			"componentType":5126,
			"count":1984,
			"max":[
				0.04955446720123291,
				0.049553871154785156,
				0.04955410957336426
			],
			"min":[
				-0.04955434799194336,
				-0.049555063247680664,
				-0.0495547354221344
			],
			"type":"VEC3"
		},
		{
			"bufferView":56,
			"componentType":5126,
			"count":1984,
			"type":"VEC3"
		},
		{
			"bufferView":57,
			"componentType":5126,
			"count":1984,
			"type":"VEC2"
		}
	],
	"bufferViews":[
		{
			"buffer":0,
			"byteLength":5304,
			"byteOffset":0,
			"target":34962
		},
		{
			"buffer":0,
			"byteLength":5304,
			"byteOffset":5304,
			"target":34962
		},
		{
			"buffer":0,
			"byteLength":3536,
			"byteOffset":10608,
			"target":34962
		},
		{
			"buffer":0,
			"byteLength":3536,
			"byteOffset":14144,
			"target":34962
		},
		{
			"buffer":0,
			"byteLength":2280,
			"byteOffset":17680,
			"target":34963
		},
		{
			"buffer":0,
			"byteLength":3168,
			"byteOffset":19960,
			"target":34962
		},
		{
			"buffer":0,
			"byteLength":3168,
			"byteOffset":23128,
			"target":34962
		},
		{
			"buffer":0,
			"byteLength":2112,
			"byteOffset":26296,
			"target":34962
		},
		{
			"buffer":0,
			"byteLength":2112,
			"byteOffset":28408,
			"target":34962
		},
		{
			"buffer":0,
			"byteLength":1788,
			"byteOffset":30520,
			"target":34963
		},
		{
			"buffer":0,
			"byteLength":48,
			"byteOffset":32308,
			"target":34962
		},
		{
			"buffer":0,
			"byteLength":48,
			"byteOffset":32356,
			"target":34962
		},
		{
			"buffer":0,
			"byteLength":32,
			"byteOffset":32404,
			"target":34962
		},
		{
			"buffer":0,
			"byteLength":32,
			"byteOffset":32436,
			"target":34962
		},
		{
			"buffer":0,
			"byteLength":12,
			"byteOffset":32468,
			"target":34963
		},
		{
			"buffer":0,
			"byteLength":3768,
			"byteOffset":32480,
			"target":34962
		},
		{
			"buffer":0,
			"byteLength":3768,
			"byteOffset":36248,
			"target":34962
		},
		{
			"buffer":0,
			"byteLength":2512,
			"byteOffset":40016,
			"target":34962
		},
		{
			"buffer":0,
			"byteLength":2512,
			"byteOffset":42528,
			"target":34962
		},
		{
			"buffer":0,
			"byteLength":1896,
			"byteOffset":45040,
			"target":34963
		},
		{
			"buffer":0,
			"byteLength":3768,
			"byteOffset":46936,
			"target":34962
		},
		{
			"buffer":0,
			"byteLength":3768,
			"byteOffset":50704,
			"target":34962
		},
		{
			"buffer":0,
			"byteLength":2512,
			"byteOffset":54472,
			"target":34962
		},
		{
			"buffer":0,
			"byteLength":2512,
			"byteOffset":56984,
			"target":34962
		},
		{
			"buffer":0,
			"byteLength":8028,
			"byteOffset":59496,
			"target":34962
		},
		{
			"buffer":0,
			"byteLength":8028,
			"byteOffset":67524,
			"target":34962
		},
		{
			"buffer":0,
			"byteLength":5352,
			"byteOffset":75552,
			"target":34962
		},
		{
			"buffer":0,
			"byteLength":5352,
			"byteOffset":80904,
			"target":34962
		},
		{
			"buffer":0,
			"byteLength":5760,
			"byteOffset":86256,
			"target":34963
		},
		{
			"buffer":0,
			"byteLength":7860,
			"byteOffset":92016,
			"target":34962
		},
		{
			"buffer":0,
			"byteLength":7860,
			"byteOffset":99876,
			"target":34962
		},
		{
			"buffer":0,
			"byteLength":5240,
			"byteOffset":107736,
			"target":34962
		},
		{
			"buffer":0,
			"byteLength":5240,
			"byteOffset":112976,
			"target":34962
		},
		{
			"buffer":0,
			"byteLength":5760,
			"byteOffset":118216,
			"target":34963
		},
		{
			"buffer":0,
			"byteLength":2688,
			"byteOffset":123976,
			"target":34962
		},
		{
			"buffer":0,
			"byteLength":2688,
			"byteOffset":126664,
			"target":34962
		},
		{
			"buffer":0,
			"byteLength":1792,
			"byteOffset":129352,
			"target":34962
		},
		{
			"buffer":0,
			"byteLength":1792,
			"byteOffset":131144,
			"target":34962
		},
		{
			"buffer":0,
			"byteLength":2280,
			"byteOffset":132936,
			"target":34963
		},
		{
			"buffer":0,
			"byteLength":4248,
			"byteOffset":135216,
			"target":34962
		},
		{
			"buffer":0,
			"byteLength":4248,
			"byteOffset":139464,
			"target":34962
		},
		{
			"buffer":0,
			"byteLength":2832,
			"byteOffset":143712,
			"target":34962
		},
		{
			"buffer":0,
			"byteLength":2832,
			"byteOffset":146544,
			"target":34962
		},
		{
			"buffer":0,
			"byteLength":2088,
			"byteOffset":149376,
			"target":34963
		},
		{
			"buffer":0,
			"byteLength":23808,
			"byteOffset":151464,
			"target":34962
		},
		{
			"buffer":0,
			"byteLength":23808,
			"byteOffset":175272,
			"target":34962
		},
		{
			"buffer":0,
			"byteLength":15872,
			"byteOffset":199080,
			"target":34962
		},
		{
			"buffer":0,
			"byteLength":5760,
			"byteOffset":214952,
			"target":34963
		},
		{
			"buffer":0,
			"byteLength":23808,
			"byteOffset":220712,
			"target":34962
		},
		{
			"buffer":0,
			"byteLength":23808,
			"byteOffset":244520,
			"target":34962
		},
		{
			"buffer":0,
			"byteLength":15872,
			"byteOffset":268328,
			"target":34962
		},
		{
			"buffer":0,
			"byteLength":15872,
			"byteOffset":284200,
			"target":34962
		},
		{
			"buffer":0,
			"byteLength":23808,
			"byteOffset":300072,
			"target":34962
		},
		{
			"buffer":0,
			"byteLength":23808,
			"byteOffset":323880,
			"target":34962
		},
		{
			"buffer":0,
			"byteLength":15872,
			"byteOffset":347688,
			"target":34962
		},
		{
			"buffer":0,
			"byteLength":23808,
			"byteOffset":363560,
			"target":34962
		},
		{
			"buffer":0,
			"byteLength":23808,
			"byteOffset":387368,
			"target":34962
		},
		{
			"buffer":0,
			"byteLength":15872,
			"byteOffset":411176,
			"target":34962
		}
	],
	"samplers":[
		{
			"magFilter":9729,
			"minFilter":9987
		}
	],
	"buffers":[
		{
			"byteLength":427048,
			"uri":"Radio_01_textures.bin"
		}
	]
}
