{
  "accessors": [
    {
      "bufferView": 2,
      "componentType": 5126,
      "count": 35555,
      "max": [
        0.37443408370018005,
        0.15142808854579926,
        0.9280999898910522
      ],
      "min": [
        -0.37443408370018005,
        -0.16688446700572968,
        -0.6552681922912598
      ],
      "type": "VEC3"
    },
    {
      "bufferView": 2,
      "byteOffset": 426660,
      "componentType": 5126,
      "count": 35555,
      "max": [
        0.9999920129776001,
        1.0,
        0.9986278414726257
      ],
      "min": [
        -0.9999920129776001,
        -0.9999804496765137,
        -0.9999970197677612
      ],
      "type": "VEC3"
    },
    {
      "bufferView": 3,
      "componentType": 5126,
      "count": 35555,
      "max": [
        0.9999958276748657,
        0.999997079372406,
        1.0,
        1.0
      ],
      "min": [
        -0.9999958276748657,
        -0.9997166991233826,
        -0.9999950528144836,
        -1.0
      ],
      "type": "VEC4"
    },
    {
      "bufferView": 1,
      "componentType": 5126,
      "count": 35555,
      "max": [
        0.9918344020843506,
        0.989849328994751
      ],
      "min": [
        0.02753884345293045,
        0.006551441270858049
      ],
      "type": "VEC2"
    },
    {
      "bufferView": 1,
      "byteOffset": 284440,
      "componentType": 5126,
      "count": 35555,
      "max": [
        0.9918344020843506,
        0.989849328994751
      ],
      "min": [
        0.02753884345293045,
        0.006551441270858049
      ],
      "type": "VEC2"
    },
    {
      "bufferView": 1,
      "byteOffset": 568880,
      "componentType": 5126,
      "count": 35555,
      "max": [
        0.9918344020843506,
        0.989849328994751
      ],
      "min": [
        0.02753884345293045,
        0.006551441270858049
      ],
      "type": "VEC2"
    },
    {
      "bufferView": 0,
      "componentType": 5125,
      "count": 171024,
      "type": "SCALAR"
    },
    {
      "bufferView": 2,
      "byteOffset": 853320,
      "componentType": 5126,
      "count": 4107,
      "max": [
        0.09575018286705017,
        0.023664066568017006,
        0.1414090394973755
      ],
      "min": [
        -0.09575019776821136,
        -0.12321630120277405,
        -0.11160310357809067
      ],
      "type": "VEC3"
    },
    {
      "bufferView": 2,
      "byteOffset": 902604,
      "componentType": 5126,
      "count": 4107,
      "max": [
        0.9993389844894409,
        0.9959640502929688,
        0.996856689453125
      ],
      "min": [
        -0.9993389844894409,
        -0.9998204708099365,
        -0.9997303485870361
      ],
      "type": "VEC3"
    },
    {
      "bufferView": 3,
      "byteOffset": 568880,
      "componentType": 5126,
      "count": 4107,
      "max": [
        1.0,
        0.9956047534942627,
        0.9998204112052917,
        1.0
      ],
      "min": [
        -1.0,
        -0.9997303485870361,
        -0.9997470378875732,
        -1.0
      ],
      "type": "VEC4"
    },
    {
      "bufferView": 1,
      "byteOffset": 853320,
      "componentType": 5126,
      "count": 4107,
      "max": [
        0.8034706711769104,
        0.9910117387771606
      ],
      "min": [
        0.01802348531782627,
        0.37990450859069824
      ],
      "type": "VEC2"
    },
    {
      "bufferView": 1,
      "byteOffset": 886176,
      "componentType": 5126,
      "count": 4107,
      "max": [
        0.8034706711769104,
        0.9910117387771606
      ],
      "min": [
        0.01802348531782627,
        0.37990450859069824
      ],
      "type": "VEC2"
    },
    {
      "bufferView": 1,
      "byteOffset": 919032,
      "componentType": 5126,
      "count": 4107,
      "max": [
        0.8034706711769104,
        0.9910117387771606
      ],
      "min": [
        0.01802348531782627,
        0.37990450859069824
      ],
      "type": "VEC2"
    },
    {
      "bufferView": 0,
      "byteOffset": 684096,
      "componentType": 5125,
      "count": 17364,
      "type": "SCALAR"
    },
    {
      "bufferView": 2,
      "byteOffset": 951888,
      "componentType": 5126,
      "count": 949,
      "max": [
        0.01846059411764145,
        0.06555129587650299,
        0.0062781465239822865
      ],
      "min": [
        -0.20692947506904602,
        -0.034320294857025146,
        -0.29567763209342957
      ],
      "type": "VEC3"
    },
    {
      "bufferView": 2,
      "byteOffset": 963276,
      "componentType": 5126,
      "count": 949,
      "max": [
        0.9905800223350525,
        0.9970725774765015,
        0.9978650212287903
      ],
      "min": [
        -0.9905800223350525,
        -0.9970725774765015,
        -0.9978730082511902
      ],
      "type": "VEC3"
    },
    {
      "bufferView": 3,
      "byteOffset": 634592,
      "componentType": 5126,
      "count": 949,
      "max": [
        0.9996786713600159,
        0.9615541696548462,
        0.9709231853485107,
        1.0
      ],
      "min": [
        -0.9996787905693054,
        -0.9392458200454712,
        -0.9748812317848206,
        -1.0
      ],
      "type": "VEC4"
    },
    {
      "bufferView": 1,
      "byteOffset": 951888,
      "componentType": 5126,
      "count": 949,
      "max": [
        0.06242454797029495,
        0.991869330406189
      ],
      "min": [
        0.010306596755981445,
        0.8594528436660767
      ],
      "type": "VEC2"
    },
    {
      "bufferView": 1,
      "byteOffset": 959480,
      "componentType": 5126,
      "count": 949,
      "max": [
        0.06242454797029495,
        0.991869330406189
      ],
      "min": [
        0.010306596755981445,
        0.8594528436660767
      ],
      "type": "VEC2"
    },
    {
      "bufferView": 1,
      "byteOffset": 967072,
      "componentType": 5126,
      "count": 949,
      "max": [
        0.06242454797029495,
        0.991869330406189
      ],
      "min": [
        0.010306596755981445,
        0.8594528436660767
      ],
      "type": "VEC2"
    },
    {
      "bufferView": 0,
      "byteOffset": 753552,
      "componentType": 5125,
      "count": 3840,
      "type": "SCALAR"
    },
    {
      "bufferView": 2,
      "byteOffset": 974664,
      "componentType": 5126,
      "count": 704,
      "max": [
        0.21162542700767517,
        0.14968980848789215,
        0.14082112908363342
      ],
      "min": [
        -0.21162542700767517,
        -0.147013857960701,
        0.05331626161932945
      ],
      "type": "VEC3"
    },
    {
      "bufferView": 2,
      "byteOffset": 983112,
      "componentType": 5126,
      "count": 704,
      "max": [
        0.9998923540115356,
        0.9999985694885254,
        0.9975825548171997
      ],
      "min": [
        -0.9998925924301147,
        -0.9999924898147583,
        -0.9975677132606506
      ],
      "type": "VEC3"
    },
    {
      "bufferView": 3,
      "byteOffset": 649776,
      "componentType": 5126,
      "count": 704,
      "max": [
        0.9963521361351013,
        0.9975677132606506,
        -0.053418226540088654,
        1.0
      ],
      "min": [
        -0.9963521361351013,
        -0.9975824952125549,
        -0.9999985694885254,
        -1.0
      ],
      "type": "VEC4"
    },
    {
      "bufferView": 1,
      "byteOffset": 974664,
      "componentType": 5126,
      "count": 704,
      "max": [
        0.885156512260437,
        0.6309876441955566
      ],
      "min": [
        0.8489828109741211,
        0.4455956518650055
      ],
      "type": "VEC2"
    },
    {
      "bufferView": 1,
      "byteOffset": 980296,
      "componentType": 5126,
      "count": 704,
      "max": [
        0.885156512260437,
        0.6309876441955566
      ],
      "min": [
        0.8489828109741211,
        0.4455956518650055
      ],
      "type": "VEC2"
    },
    {
      "bufferView": 1,
      "byteOffset": 985928,
      "componentType": 5126,
      "count": 704,
      "max": [
        0.885156512260437,
        0.6309876441955566
      ],
      "min": [
        0.8489828109741211,
        0.4455956518650055
      ],
      "type": "VEC2"
    },
    {
      "bufferView": 0,
      "byteOffset": 768912,
      "componentType": 5125,
      "count": 3456,
      "type": "SCALAR"
    },
    {
      "bufferView": 2,
      "byteOffset": 991560,
      "componentType": 5126,
      "count": 2296,
      "max": [
        0.23382526636123657,
        0.06596479564905167,
        -0.6459483504295349
      ],
      "min": [
        -0.23382525146007538,
        -0.2866668701171875,
        -0.9724778532981873
      ],
      "type": "VEC3"
    },
    {
      "bufferView": 2,
      "byteOffset": 1019112,
      "componentType": 5126,
      "count": 2296,
      "max": [
        0.9998449087142944,
        0.9995990991592407,
        0.9921639561653137
      ],
      "min": [
        -0.9998449087142944,
        -0.9998061656951904,
        -0.9999439716339111
      ],
      "type": "VEC3"
    },
    {
      "bufferView": 3,
      "byteOffset": 661040,
      "componentType": 5126,
      "count": 2296,
      "max": [
        0.888244092464447,
        0.9999746680259705,
        0.9996243715286255,
        1.0
      ],
      "min": [
        -0.8882467746734619,
        -0.9532773494720459,
        -0.9443986415863037,
        -1.0
      ],
      "type": "VEC4"
    },
    {
      "bufferView": 1,
      "byteOffset": 991560,
      "componentType": 5126,
      "count": 2296,
      "max": [
        0.9832195043563843,
        0.8366495370864868
      ],
      "min": [
        0.02495848573744297,
        0.5970693826675415
      ],
      "type": "VEC2"
    },
    {
      "bufferView": 1,
      "byteOffset": 1009928,
      "componentType": 5126,
      "count": 2296,
      "max": [
        0.9832195043563843,
        0.8366495370864868
      ],
      "min": [
        0.02495848573744297,
        0.5970693826675415
      ],
      "type": "VEC2"
    },
    {
      "bufferView": 1,
      "byteOffset": 1028296,
      "componentType": 5126,
      "count": 2296,
      "max": [
        0.9832195043563843,
        0.8366495370864868
      ],
      "min": [
        0.02495848573744297,
        0.5970693826675415
      ],
      "type": "VEC2"
    },
    {
      "bufferView": 0,
      "byteOffset": 782736,
      "componentType": 5125,
      "count": 11520,
      "type": "SCALAR"
    },
    {
      "bufferView": 2,
      "byteOffset": 1046664,
      "componentType": 5126,
      "count": 1889,
      "max": [
        0.07700887322425842,
        0.01671859249472618,
        0.09157241135835648
      ],
      "min": [
        -0.07645054906606674,
        -0.03976116329431534,
        -0.08804729580879211
      ],
      "type": "VEC3"
    },
    {
      "bufferView": 2,
      "byteOffset": 1069332,
      "componentType": 5126,
      "count": 1889,
      "max": [
        1.0,
        1.0,
        0.9996837377548218
      ],
      "min": [
        -1.0,
        -0.9998824596405029,
        -1.0
      ],
      "type": "VEC3"
    },
    {
      "bufferView": 3,
      "byteOffset": 697776,
      "componentType": 5126,
      "count": 1889,
      "max": [
        0.9999995827674866,
        1.0,
        0.9934995174407959,
        1.0
      ],
      "min": [
        -0.9999375939369202,
        -1.0,
        -0.9998512268066406,
        -1.0
      ],
      "type": "VEC4"
    },
    {
      "bufferView": 1,
      "byteOffset": 1046664,
      "componentType": 5126,
      "count": 1889,
      "max": [
        0.9862188100814819,
        0.9878807067871094
      ],
      "min": [
        0.07212776690721512,
        0.44395577907562256
      ],
      "type": "VEC2"
    },
    {
      "bufferView": 1,
      "byteOffset": 1061776,
      "componentType": 5126,
      "count": 1889,
      "max": [
        0.9862188100814819,
        0.9878807067871094
      ],
      "min": [
        0.07212776690721512,
        0.44395577907562256
      ],
      "type": "VEC2"
    },
    {
      "bufferView": 1,
      "byteOffset": 1076888,
      "componentType": 5126,
      "count": 1889,
      "max": [
        0.9862188100814819,
        0.9878807067871094
      ],
      "min": [
        0.07212776690721512,
        0.44395577907562256
      ],
      "type": "VEC2"
    },
    {
      "bufferView": 0,
      "byteOffset": 828816,
      "componentType": 5125,
      "count": 9024,
      "type": "SCALAR"
    }
  ],
  "asset": {
    "extras": {
      "author": "assetfactory (https://sketchfab.com/assetfactory)",
      "license": "SKETCHFAB Standard (https://sketchfab.com/licenses)",
      "source": "https://sketchfab.com/3d-models/hazmat-suit-794ccaabb9e143b5b1737985bb0c52b2",
      "title": "Hazmat Suit"
    },
    "generator": "Sketchfab-16.33.0",
    "version": "2.0"
  },
  "bufferViews": [
    {
      "buffer": 0,
      "byteLength": 864912,
      "name": "floatBufferViews",
      "target": 34963
    },
    {
      "buffer": 0,
      "byteLength": 1092000,
      "byteOffset": 864912,
      "byteStride": 8,
      "name": "floatBufferViews",
      "target": 34962
    },
    {
      "buffer": 0,
      "byteLength": 1092000,
      "byteOffset": 1956912,
      "byteStride": 12,
      "name": "floatBufferViews",
      "target": 34962
    },
    {
      "buffer": 0,
      "byteLength": 728000,
      "byteOffset": 3048912,
      "byteStride": 16,
      "name": "floatBufferViews",
      "target": 34962
    }
  ],
  "buffers": [
    {
      "byteLength": 3776912,
      "uri": "scene.bin"
    }
  ],
  "images": [
    {
      "uri": "textures/Hazmat_baseColor.jpeg"
    },
    {
      "uri": "textures/Hazmat_metallicRoughness.png"
    },
    {
      "uri": "textures/Hazmat_normal.png"
    }
  ],
  "materials": [
    {
      "doubleSided": true,
      "name": "Hazmat",
      "normalTexture": {
        "index": 2
      },
      "occlusionTexture": {
        "index": 1
      },
      "pbrMetallicRoughness": {
        "baseColorTexture": {
          "index": 0
        },
        "metallicRoughnessTexture": {
          "index": 1
        }
      }
    }
  ],
  "meshes": [
    {
      "name": "Cube_Hazmat_0",
      "primitives": [
        {
          "attributes": {
            "NORMAL": 1,
            "POSITION": 0,
            "TANGENT": 2,
            "TEXCOORD_0": 3,
            "TEXCOORD_1": 4,
            "TEXCOORD_2": 5
          },
          "indices": 6,
          "material": 0,
          "mode": 4
        }
      ]
    },
    {
      "name": "Cube.001_Hazmat_0",
      "primitives": [
        {
          "attributes": {
            "NORMAL": 8,
            "POSITION": 7,
            "TANGENT": 9,
            "TEXCOORD_0": 10,
            "TEXCOORD_1": 11,
            "TEXCOORD_2": 12
          },
          "indices": 13,
          "material": 0,
          "mode": 4
        }
      ]
    },
    {
      "name": "Plane_Hazmat_0",
      "primitives": [
        {
          "attributes": {
            "NORMAL": 15,
            "POSITION": 14,
            "TANGENT": 16,
            "TEXCOORD_0": 17,
            "TEXCOORD_1": 18,
            "TEXCOORD_2": 19
          },
          "indices": 20,
          "material": 0,
          "mode": 4
        }
      ]
    },
    {
      "name": "Cube.002_Hazmat_0",
      "primitives": [
        {
          "attributes": {
            "NORMAL": 22,
            "POSITION": 21,
            "TANGENT": 23,
            "TEXCOORD_0": 24,
            "TEXCOORD_1": 25,
            "TEXCOORD_2": 26
          },
          "indices": 27,
          "material": 0,
          "mode": 4
        }
      ]
    },
    {
      "name": "Cube.003_Hazmat_0",
      "primitives": [
        {
          "attributes": {
            "NORMAL": 29,
            "POSITION": 28,
            "TANGENT": 30,
            "TEXCOORD_0": 31,
            "TEXCOORD_1": 32,
            "TEXCOORD_2": 33
          },
          "indices": 34,
          "material": 0,
          "mode": 4
        }
      ]
    },
    {
      "name": "Cube.004_Hazmat_0",
      "primitives": [
        {
          "attributes": {
            "NORMAL": 36,
            "POSITION": 35,
            "TANGENT": 37,
            "TEXCOORD_0": 38,
            "TEXCOORD_1": 39,
            "TEXCOORD_2": 40
          },
          "indices": 41,
          "material": 0,
          "mode": 4
        }
      ]
    }
  ],
  "nodes": [
    {
      "children": [
        1
      ],
      "matrix": [
        1.0,
        0.0,
        0.0,
        0.0,
        0.0,
        2.220446049250313e-16,
        -1.0,
        0.0,
        0.0,
        1.0,
        2.220446049250313e-16,
        0.0,
        0.0,
        0.0,
        0.0,
        1.0
      ],
      "name": "Sketchfab_model"
    },
    {
      "children": [
        2
      ],
      "matrix": [
        0.009999999776482582,
        0.0,
        0.0,
        0.0,
        0.0,
        0.0,
        0.009999999776482582,
        0.0,
        0.0,
        -0.009999999776482582,
        0.0,
        0.0,
        0.0,
        0.0,
        0.0,
        1.0
      ],
      "name": "HazmatSuitPose.fbx"
    },
    {
      "children": [
        3,
        5,
        7,
        9,
        11,
        13
      ],
      "name": "RootNode"
    },
    {
      "children": [
        4
      ],
      "matrix": [
        100.0,
        0.0,
        0.0,
        0.0,
        0.0,
        -1.629206793918314e-05,
        -99.99999999999868,
        0.0,
        0.0,
        99.99999999999868,
        -1.629206793918314e-05,
        0.0,
        0.0,
        99.35623931884766,
        0.0,
        1.0
      ],
      "name": "Cube"
    },
    {
      "mesh": 0,
      "name": "Cube_Hazmat_0"
    },
    {
      "children": [
        6
      ],
      "matrix": [
        100.0,
        0.0,
        0.0,
        0.0,
        0.0,
        -1.629206793918314e-05,
        -99.99999999999868,
        0.0,
        0.0,
        99.99999999999868,
        -1.629206793918314e-05,
        0.0,
        0.0,
        174.30047607421875,
        4.461541175842285,
        1.0
      ],
      "name": "Cube.001"
    },
    {
      "mesh": 1,
      "name": "Cube.001_Hazmat_0"
    },
    {
      "children": [
        8
      ],
      "matrix": [
        100.0,
        0.0,
        0.0,
        0.0,
        0.0,
        99.9999999999999,
        4.371138828673792e-06,
        0.0,
        0.0,
        -4.371138828673792e-06,
        99.9999999999999,
        0.0,
        9.423443794250488,
        107.59103393554688,
        14.210845947265625,
        1.0
      ],
      "name": "Plane"
    },
    {
      "mesh": 2,
      "name": "Plane_Hazmat_0"
    },
    {
      "children": [
        10
      ],
      "matrix": [
        100.0,
        0.0,
        0.0,
        0.0,
        0.0,
        -1.629206793918314e-05,
        -99.99999999999868,
        0.0,
        0.0,
        99.99999999999868,
        -1.629206793918314e-05,
        0.0,
        0.0,
        99.35623931884766,
        0.0,
        1.0
      ],
      "name": "Cube.002"
    },
    {
      "mesh": 3,
      "name": "Cube.002_Hazmat_0"
    },
    {
      "children": [
        12
      ],
      "matrix": [
        100.0,
        0.0,
        0.0,
        0.0,
        0.0,
        -1.629206793918314e-05,
        -99.99999999999868,
        0.0,
        0.0,
        99.99999999999868,
        -1.629206793918314e-05,
        0.0,
        0.0,
        99.35623931884766,
        0.0,
        1.0
      ],
      "name": "Cube.003"
    },
    {
      "mesh": 4,
      "name": "Cube.003_Hazmat_0"
    },
    {
      "children": [
        14
      ],
      "matrix": [
        63.76849871528457,
        1.36037145545215,
        -77.01772190204608,
        0.0,
        -76.8661511843256,
        -5.388751397382885,
        -63.738184477482605,
        0.0,
        -5.017369250289184,
        99.84543428801729,
        -2.3906605036008166,
        0.0,
        18.27899169921875,
        106.18374633789063,
        9.215336799621582,
        1.0
      ],
      "name": "Cube.004"
    },
    {
      "mesh": 5,
      "name": "Cube.004_Hazmat_0"
    }
  ],
  "samplers": [
    {
      "magFilter": 9729,
      "minFilter": 9987,
      "wrapS": 10497,
      "wrapT": 10497
    }
  ],
  "scene": 0,
  "scenes": [
    {
      "name": "Sketchfab_Scene",
      "nodes": [
        0
      ]
    }
  ],
  "textures": [
    {
      "sampler": 0,
      "source": 0
    },
    {
      "sampler": 0,
      "source": 1
    },
    {
      "sampler": 0,
      "source": 2
    }
  ]
}
