{
  "accessors": [
    {
      "bufferView": 2,
      "componentType": 5126,
      "count": 355,
      "max": [
        0.6819199919700623,
        0.319586843252182,
        2.003769874572754
      ],
      "min": [
        -0.6819199919700623,
        -0.31764689087867737,
        -0.0019436557777225971
      ],
      "type": "VEC3"
    },
    {
      "bufferView": 2,
      "byteOffset": 4260,
      "componentType": 5126,
      "count": 355,
      "max": [
        1.0,
        1.0,
        1.0
      ],
      "min": [
        -1.0,
        -1.0,
        -1.0
      ],
      "type": "VEC3"
    },
    {
      "bufferView": 1,
      "componentType": 5126,
      "count": 355,
      "max": [
        0.9745290875434875,
        0.9814304709434509
      ],
      "min": [
        0.006065391935408115,
        0.1628844290971756
      ],
      "type": "VEC2"
    },
    {
      "bufferView": 0,
      "componentType": 5125,
      "count": 480,
      "type": "SCALAR"
    },
    {
      "bufferView": 2,
      "byteOffset": 8520,
      "componentType": 5126,
      "count": 290,
      "max": [
        0.5383598804473877,
        0.228414848446846,
        0.7392799258232117
      ],
      "min": [
        -0.5383598804473877,
        -0.22905872762203217,
        -0.0005930513143539429
      ],
      "type": "VEC3"
    },
    {
      "bufferView": 2,
      "byteOffset": 12000,
      "componentType": 5126,
      "count": 290,
      "max": [
        1.0,
        1.0,
        1.0
      ],
      "min": [
        -1.0,
        -1.0,
        -1.0
      ],
      "type": "VEC3"
    },
    {
      "bufferView": 1,
      "byteOffset": 2840,
      "componentType": 5126,
      "count": 290,
      "max": [
        0.9854239225387573,
        0.9823353886604309
      ],
      "min": [
        0.10202891379594803,
        0.00606538075953722
      ],
      "type": "VEC2"
    },
    {
      "bufferView": 0,
      "byteOffset": 1920,
      "componentType": 5125,
      "count": 390,
      "type": "SCALAR"
    },
    {
      "bufferView": 2,
      "byteOffset": 15480,
      "componentType": 5126,
      "count": 108,
      "max": [
        0.5593259334564209,
        0.30298057198524475,
        1.143113136291504
      ],
      "min": [
        -0.5593259334564209,
        -0.30258670449256897,
        0.0003394116647541523
      ],
      "type": "VEC3"
    },
    {
      "bufferView": 2,
      "byteOffset": 16776,
      "componentType": 5126,
      "count": 108,
      "max": [
        1.0,
        1.0,
        1.0
      ],
      "min": [
        -1.0,
        -1.0,
        -1.0
      ],
      "type": "VEC3"
    },
    {
      "bufferView": 1,
      "byteOffset": 5160,
      "componentType": 5126,
      "count": 108,
      "max": [
        0.8727107644081116,
        0.9939346313476563
      ],
      "min": [
        0.0060653844848275185,
        0.0060653830878436565
      ],
      "type": "VEC2"
    },
    {
      "bufferView": 0,
      "byteOffset": 3480,
      "componentType": 5125,
      "count": 174,
      "type": "SCALAR"
    },
    {
      "bufferView": 2,
      "byteOffset": 18072,
      "componentType": 5126,
      "count": 536,
      "max": [
        0.9974775910377502,
        0.47248387336730957,
        0.9040071368217468
      ],
      "min": [
        -0.9905848503112793,
        -0.47248387336730957,
        0.00019235536456108093
      ],
      "type": "VEC3"
    },
    {
      "bufferView": 2,
      "byteOffset": 24504,
      "componentType": 5126,
      "count": 536,
      "max": [
        1.0,
        1.0,
        1.0
      ],
      "min": [
        -1.0,
        -1.0,
        -1.0
      ],
      "type": "VEC3"
    },
    {
      "bufferView": 1,
      "byteOffset": 6024,
      "componentType": 5126,
      "count": 536,
      "max": [
        0.9777839183807373,
        0.9712597131729126
      ],
      "min": [
        0.16250979900360107,
        0.00606539286673069
      ],
      "type": "VEC2"
    },
    {
      "bufferView": 0,
      "byteOffset": 4176,
      "componentType": 5125,
      "count": 594,
      "type": "SCALAR"
    },
    {
      "bufferView": 2,
      "byteOffset": 30936,
      "componentType": 5126,
      "count": 198,
      "max": [
        0.7453994750976563,
        0.28361865878105164,
        2.149014711380005
      ],
      "min": [
        -0.7453994750976563,
        -0.3099195957183838,
        -0.00044834939762949944
      ],
      "type": "VEC3"
    },
    {
      "bufferView": 2,
      "byteOffset": 33312,
      "componentType": 5126,
      "count": 198,
      "max": [
        1.0,
        1.0,
        1.0
      ],
      "min": [
        -1.0,
        -1.0,
        -1.0
      ],
      "type": "VEC3"
    },
    {
      "bufferView": 1,
      "byteOffset": 10312,
      "componentType": 5126,
      "count": 198,
      "max": [
        0.691239595413208,
        0.9286483526229858
      ],
      "min": [
        0.0031947786919772625,
        0.0031947677489370108
      ],
      "type": "VEC2"
    },
    {
      "bufferView": 0,
      "byteOffset": 6552,
      "componentType": 5125,
      "count": 288,
      "type": "SCALAR"
    },
    {
      "bufferView": 2,
      "byteOffset": 35688,
      "componentType": 5126,
      "count": 79,
      "max": [
        0.06416492909193039,
        0.4010743796825409,
        0.6249847412109375
      ],
      "min": [
        -0.0641712099313736,
        -0.05721684545278549,
        -1.7609661995265924e-07
      ],
      "type": "VEC3"
    },
    {
      "bufferView": 2,
      "byteOffset": 36636,
      "componentType": 5126,
      "count": 79,
      "max": [
        0.9970818758010864,
        0.999944269657135,
        0.9743831753730774
      ],
      "min": [
        -0.9940661787986755,
        -0.9791935682296753,
        -0.9881036877632141
      ],
      "type": "VEC3"
    },
    {
      "bufferView": 1,
      "byteOffset": 11896,
      "componentType": 5126,
      "count": 79,
      "max": [
        0.4033576250076294,
        0.7856941819190979
      ],
      "min": [
        0.3523607850074768,
        0.7313984036445618
      ],
      "type": "VEC2"
    },
    {
      "bufferView": 0,
      "byteOffset": 7704,
      "componentType": 5125,
      "count": 375,
      "type": "SCALAR"
    },
    {
      "bufferView": 2,
      "byteOffset": 37584,
      "componentType": 5126,
      "count": 124,
      "max": [
        0.341759592294693,
        0.29079943895339966,
        0.930815577507019
      ],
      "min": [
        -0.341759592294693,
        -0.3154106140136719,
        0.0010242760181427002
      ],
      "type": "VEC3"
    },
    {
      "bufferView": 2,
      "byteOffset": 39072,
      "componentType": 5126,
      "count": 124,
      "max": [
        1.0,
        1.0,
        1.0
      ],
      "min": [
        -1.0,
        -1.0,
        -1.0
      ],
      "type": "VEC3"
    },
    {
      "bufferView": 1,
      "byteOffset": 12528,
      "componentType": 5126,
      "count": 124,
      "max": [
        0.7933977842330933,
        0.9968053102493286
      ],
      "min": [
        0.2295982539653778,
        0.3737924098968506
      ],
      "type": "VEC2"
    },
    {
      "bufferView": 0,
      "byteOffset": 9204,
      "componentType": 5125,
      "count": 138,
      "type": "SCALAR"
    },
    {
      "bufferView": 2,
      "byteOffset": 40560,
      "componentType": 5126,
      "count": 118,
      "max": [
        0.7367345690727234,
        0.3433530330657959,
        2.170260429382324
      ],
      "min": [
        -0.7367345690727234,
        -0.34176644682884216,
        0.0017386411782354116
      ],
      "type": "VEC3"
    },
    {
      "bufferView": 2,
      "byteOffset": 41976,
      "componentType": 5126,
      "count": 118,
      "max": [
        1.0,
        1.0,
        1.0
      ],
      "min": [
        -1.0,
        -1.0,
        -1.0
      ],
      "type": "VEC3"
    },
    {
      "bufferView": 1,
      "byteOffset": 13520,
      "componentType": 5126,
      "count": 118,
      "max": [
        0.952572226524353,
        0.6945430040359497
      ],
      "min": [
        0.0031947786919772625,
        0.003194767516106367
      ],
      "type": "VEC2"
    },
    {
      "bufferView": 0,
      "byteOffset": 9756,
      "componentType": 5125,
      "count": 156,
      "type": "SCALAR"
    }
  ],
  "asset": {
    "extras": {
      "author": "Wardster (https://sketchfab.com/WardsterSAW)",
      "license": "CC-BY-4.0 (http://creativecommons.org/licenses/by/4.0/)",
      "source": "https://sketchfab.com/3d-models/old-lowpoly-furniture-66bed104642c454a9930bdf0f161c35c",
      "title": "Old Lowpoly Furniture"
    },
    "generator": "Sketchfab-16.16.0",
    "version": "2.0"
  },
  "bufferViews": [
    {
      "buffer": 0,
      "byteLength": 10380,
      "name": "floatBufferViews",
      "target": 34963
    },
    {
      "buffer": 0,
      "byteLength": 14464,
      "byteOffset": 10380,
      "byteStride": 8,
      "name": "floatBufferViews",
      "target": 34962
    },
    {
      "buffer": 0,
      "byteLength": 43392,
      "byteOffset": 24844,
      "byteStride": 12,
      "name": "floatBufferViews",
      "target": 34962
    }
  ],
  "buffers": [
    {
      "byteLength": 68236,
      "uri": "scene.bin"
    }
  ],
  "images": [
    {
      "uri": "textures/OLD_FURNITURE__02_baseColor.png"
    },
    {
      "uri": "textures/OLD_FURNITURE__01_baseColor.png"
    }
  ],
  "materials": [
    {
      "doubleSided": true,
      "name": "OLD_FURNITURE__02",
      "pbrMetallicRoughness": {
        "baseColorTexture": {
          "index": 0
        },
        "metallicFactor": 0.0,
        "roughnessFactor": 0.8211145618000169
      }
    },
    {
      "doubleSided": true,
      "name": "OLD_FURNITURE__01",
      "pbrMetallicRoughness": {
        "baseColorTexture": {
          "index": 1
        },
        "metallicFactor": 0.0,
        "roughnessFactor": 0.8211145618000169
      }
    }
  ],
  "meshes": [
    {
      "name": "Kitchen_Cabinet_OLD_FURNITURE _02_0",
      "primitives": [
        {
          "attributes": {
            "NORMAL": 1,
            "POSITION": 0,
            "TEXCOORD_0": 2
          },
          "indices": 3,
          "material": 0,
          "mode": 4
        }
      ]
    },
    {
      "name": "small_Bookshelf_OLD_FURNITURE _02_0",
      "primitives": [
        {
          "attributes": {
            "NORMAL": 5,
            "POSITION": 4,
            "TEXCOORD_0": 6
          },
          "indices": 7,
          "material": 0,
          "mode": 4
        }
      ]
    },
    {
      "name": "small_Dresser_OLD_FURNITURE _02_0",
      "primitives": [
        {
          "attributes": {
            "NORMAL": 9,
            "POSITION": 8,
            "TEXCOORD_0": 10
          },
          "indices": 11,
          "material": 0,
          "mode": 4
        }
      ]
    },
    {
      "name": "rustic_Wood_Table_OLD_FURNITURE _02_0",
      "primitives": [
        {
          "attributes": {
            "NORMAL": 13,
            "POSITION": 12,
            "TEXCOORD_0": 14
          },
          "indices": 15,
          "material": 0,
          "mode": 4
        }
      ]
    },
    {
      "name": "old_Bookcase_OLD_FURNITURE _01_0",
      "primitives": [
        {
          "attributes": {
            "NORMAL": 17,
            "POSITION": 16,
            "TEXCOORD_0": 18
          },
          "indices": 19,
          "material": 1,
          "mode": 4
        }
      ]
    },
    {
      "name": "antique_iron_stove_chimney_OLD_FURNITURE _01_0",
      "primitives": [
        {
          "attributes": {
            "NORMAL": 21,
            "POSITION": 20,
            "TEXCOORD_0": 22
          },
          "indices": 23,
          "material": 1,
          "mode": 4
        }
      ]
    },
    {
      "name": "antique_iron_stove_OLD_FURNITURE _01_0",
      "primitives": [
        {
          "attributes": {
            "NORMAL": 25,
            "POSITION": 24,
            "TEXCOORD_0": 26
          },
          "indices": 27,
          "material": 1,
          "mode": 4
        }
      ]
    },
    {
      "name": "old_Wardrobe_OLD_FURNITURE _01_0",
      "primitives": [
        {
          "attributes": {
            "NORMAL": 29,
            "POSITION": 28,
            "TEXCOORD_0": 30
          },
          "indices": 31,
          "material": 1,
          "mode": 4
        }
      ]
    }
  ],
  "nodes": [
    {
      "children": [
        1
      ],
      "matrix": [
        1.0,
        0.0,
        0.0,
        0.0,
        0.0,
        2.220446049250313e-16,
        -1.0,
        0.0,
        0.0,
        1.0,
        2.220446049250313e-16,
        0.0,
        0.0,
        0.0,
        0.0,
        1.0
      ],
      "name": "Sketchfab_model"
    },
    {
      "children": [
        2
      ],
      "matrix": [
        0.009999999776482582,
        0.0,
        0.0,
        0.0,
        0.0,
        0.0,
        0.009999999776482582,
        0.0,
        0.0,
        -0.009999999776482582,
        0.0,
        0.0,
        0.0,
        0.0,
        0.0,
        1.0
      ],
      "name": "348e5a65a16242bda6a77309f64a7a84.fbx"
    },
    {
      "children": [
        3,
        5,
        7,
        9,
        11,
        13,
        15,
        17
      ],
      "name": "RootNode"
    },
    {
      "children": [
        4
      ],
      "matrix": [
        100.0,
        0.0,
        0.0,
        0.0,
        -0.0,
        -1.629206793918314e-05,
        -99.99999999999868,
        0.0,
        0.0,
        99.99999999999868,
        -1.629206793918314e-05,
        0.0,
        -17.30859375,
        0.0,
        -148.94430541992188,
        1.0
      ],
      "name": "Kitchen_Cabinet"
    },
    {
      "mesh": 0,
      "name": "Kitchen_Cabinet_OLD_FURNITURE _02_0"
    },
    {
      "children": [
        6
      ],
      "matrix": [
        100.0,
        0.0,
        0.0,
        0.0,
        -0.0,
        -1.629206793918314e-05,
        -99.99999999999868,
        0.0,
        0.0,
        99.99999999999868,
        -1.629206793918314e-05,
        0.0,
        -16.536067962646484,
        0.0,
        58.06842041015625,
        1.0
      ],
      "name": "small_Bookshelf"
    },
    {
      "mesh": 1,
      "name": "small_Bookshelf_OLD_FURNITURE _02_0"
    },
    {
      "children": [
        8
      ],
      "matrix": [
        100.0,
        0.0,
        0.0,
        0.0,
        -0.0,
        -1.629206793918314e-05,
        -99.99999999999868,
        0.0,
        0.0,
        99.99999999999868,
        -1.629206793918314e-05,
        0.0,
        -187.93954467773438,
        0.0,
        52.78553771972656,
        1.0
      ],
      "name": "small_Dresser"
    },
    {
      "mesh": 2,
      "name": "small_Dresser_OLD_FURNITURE _02_0"
    },
    {
      "children": [
        10
      ],
      "matrix": [
        100.0,
        0.0,
        0.0,
        0.0,
        -0.0,
        -1.629206793918314e-05,
        -99.99999999999868,
        0.0,
        0.0,
        99.99999999999868,
        -1.629206793918314e-05,
        0.0,
        -15.016722679138184,
        0.0,
        263.2289733886719,
        1.0
      ],
      "name": "rustic_Wood_Table"
    },
    {
      "mesh": 3,
      "name": "rustic_Wood_Table_OLD_FURNITURE _02_0"
    },
    {
      "children": [
        12
      ],
      "matrix": [
        100.0,
        0.0,
        0.0,
        0.0,
        -0.0,
        -1.629206793918314e-05,
        -99.99999999999868,
        0.0,
        0.0,
        99.99999999999868,
        -1.629206793918314e-05,
        0.0,
        -207.71861267089844,
        0.0,
        -145.7340545654297,
        1.0
      ],
      "name": "old_Bookcase"
    },
    {
      "mesh": 4,
      "name": "old_Bookcase_OLD_FURNITURE _01_0"
    },
    {
      "children": [
        14
      ],
      "matrix": [
        100.0,
        0.0,
        0.0,
        0.0,
        0.0,
        -1.629206793918314e-05,
        -99.99999999999868,
        0.0,
        0.0,
        99.99999999999868,
        -1.629206793918314e-05,
        0.0,
        156.4901123046875,
        93.314453125,
        30.712783813476563,
        1.0
      ],
      "name": "antique_iron_stove_chimney"
    },
    {
      "mesh": 5,
      "name": "antique_iron_stove_chimney_OLD_FURNITURE _01_0"
    },
    {
      "children": [
        16
      ],
      "matrix": [
        100.0,
        0.0,
        0.0,
        0.0,
        0.0,
        -1.629206793918314e-05,
        -99.99999999999868,
        0.0,
        0.0,
        99.99999999999868,
        -1.629206793918314e-05,
        0.0,
        156.4901123046875,
        0.0,
        50.7659912109375,
        1.0
      ],
      "name": "antique_iron_stove"
    },
    {
      "mesh": 6,
      "name": "antique_iron_stove_OLD_FURNITURE _01_0"
    },
    {
      "children": [
        18
      ],
      "matrix": [
        100.0,
        0.0,
        0.0,
        0.0,
        0.0,
        -1.629206793918314e-05,
        -99.99999999999868,
        0.0,
        0.0,
        99.99999999999868,
        -1.629206793918314e-05,
        0.0,
        146.05519104003906,
        0.0,
        -145.7340545654297,
        1.0
      ],
      "name": "old_Wardrobe"
    },
    {
      "mesh": 7,
      "name": "old_Wardrobe_OLD_FURNITURE _01_0"
    }
  ],
  "samplers": [
    {
      "magFilter": 9729,
      "minFilter": 9987,
      "wrapS": 10497,
      "wrapT": 10497
    }
  ],
  "scene": 0,
  "scenes": [
    {
      "name": "Sketchfab_Scene",
      "nodes": [
        0
      ]
    }
  ],
  "textures": [
    {
      "sampler": 0,
      "source": 0
    },
    {
      "sampler": 0,
      "source": 1
    }
  ]
}
